<?xml version="1.0" encoding="utf-8"?><svg viewBox="0 0 101 222" xmlns="http://www.w3.org/2000/svg" xmlns:xlink="http://www.w3.org/1999/xlink"><style>:root>svg{display:none}:root>svg:target{display:block}</style><svg fill="none" viewBox="0 0 32 32" id="bg-social" xmlns="http://www.w3.org/2000/svg"><path fill-rule="evenodd" clip-rule="evenodd" d="M0 16c0 8.82 7.176 16 16 16 8.82 0 16-7.18 16-16S24.82 0 16 0 0 7.18 0 16ZM5.942 4.97A14.877 14.877 0 0 1 16 1.065c3.87 0 7.4 1.479 10.056 3.901l-1.188 1.188A13.201 13.201 0 0 0 16 2.75c-3.412 0-6.522 1.29-8.87 3.407L5.941 4.969Zm-.974.974A14.877 14.877 0 0 0 1.066 16c0 3.87 1.479 7.4 3.9 10.055l1.188-1.187A13.201 13.201 0 0 1 2.75 16c0-3.41 1.288-6.52 3.405-8.869L4.968 5.944ZM5.94 27.03A14.877 14.877 0 0 0 16 30.934c3.87 0 7.4-1.478 10.055-3.9l-1.188-1.188A13.201 13.201 0 0 1 16 29.25c-3.412 0-6.523-1.29-8.871-3.407L5.94 27.03ZM30.934 16c0 3.871-1.48 7.403-3.905 10.06l-1.187-1.188A13.201 13.201 0 0 0 29.25 16c0-3.412-1.29-6.522-3.407-8.87l1.187-1.188A14.877 14.877 0 0 1 30.934 16Z" fill="#478BF9"/></svg><svg fill="none" viewBox="0 0 32 32" id="bg-social-hover" xmlns="http://www.w3.org/2000/svg"><path fill-rule="evenodd" clip-rule="evenodd" d="M0 16c0 8.82 7.176 16 16 16 8.82 0 16-7.18 16-16S24.82 0 16 0 0 7.18 0 16ZM5.942 4.97A14.877 14.877 0 0 1 16 1.065c3.87 0 7.4 1.479 10.056 3.901l-1.188 1.188A13.201 13.201 0 0 0 16 2.75c-3.412 0-6.522 1.29-8.87 3.407L5.941 4.969Zm-.974.974A14.877 14.877 0 0 0 1.066 16c0 3.87 1.479 7.4 3.9 10.055l1.188-1.187A13.201 13.201 0 0 1 2.75 16c0-3.41 1.288-6.52 3.405-8.869L4.968 5.944ZM5.94 27.03A14.877 14.877 0 0 0 16 30.934c3.87 0 7.4-1.478 10.055-3.9l-1.188-1.188A13.201 13.201 0 0 1 16 29.25c-3.412 0-6.523-1.29-8.871-3.407L5.94 27.03ZM30.934 16c0 3.871-1.48 7.403-3.905 10.06l-1.187-1.188A13.201 13.201 0 0 0 29.25 16c0-3.412-1.29-6.522-3.407-8.87l1.187-1.188A14.877 14.877 0 0 1 30.934 16Z" fill="url(#aa)"/><defs><linearGradient id="aa" x1="32" y1="0" x2="-5.647" y2="9.412" gradientUnits="userSpaceOnUse"><stop stop-color="#478BF9"/><stop offset="1" stop-color="#9DADF2"/></linearGradient></defs></svg><svg fill="none" viewBox="0 0 28 28" id="close" xmlns="http://www.w3.org/2000/svg"><g clip-path="url(#ca)"><path d="m22.167 7.478-1.645-1.645L14 12.355 7.478 5.833 5.833 7.478 12.355 14l-6.522 6.522 1.645 1.645L14 15.645l6.522 6.522 1.645-1.645L15.645 14l6.522-6.522Z" fill="#fff"/></g><defs><clipPath id="ca"><path fill="#fff" d="M0 0h28v28H0z"/></clipPath></defs></svg><svg fill="none" viewBox="0 0 101 101" id="crown" xmlns="http://www.w3.org/2000/svg"><path d="M14.828 85.452c-19.49-19.49-19.49-51.199 0-70.688 19.49-19.49 51.198-19.49 70.688 0 19.49 19.49 19.49 51.198 0 70.688-19.49 19.489-51.198 19.489-70.688 0Zm68.333-68.333c-18.191-18.19-47.786-18.19-65.972 0-18.192 18.191-18.192 47.786 0 65.972 18.19 18.191 47.785 18.191 65.972 0 18.191-18.19 18.191-47.785 0-65.972Z" fill="#fff"/><path d="M83.7 39.505a1.643 1.643 0 0 1-.398-.645c-1.73-5.119-4.555-9.654-8.394-13.494a34.663 34.663 0 0 0-13.494-8.394 1.667 1.667 0 0 1-1.133-1.578V3.246a1.664 1.664 0 0 1 2.067-1.616 49.872 49.872 0 0 1 23.158 13.134 49.929 49.929 0 0 1 13.13 23.158c.122.498.009 1.024-.304 1.431a1.66 1.66 0 0 1-1.313.64H84.87c-.455 0-.872-.185-1.18-.493l.01.005ZM77.264 23.01a37.979 37.979 0 0 1 8.792 13.65h8.787A46.608 46.608 0 0 0 83.155 17.12 46.562 46.562 0 0 0 63.618 5.436v8.787a37.852 37.852 0 0 1 13.65 8.792l-.004-.004ZM14.827 85.452A49.913 49.913 0 0 1 1.693 62.293a1.673 1.673 0 0 1 .304-1.426 1.66 1.66 0 0 1 1.312-.64h12.148c.716 0 1.351.455 1.579 1.133 1.73 5.118 4.554 9.654 8.394 13.494a34.664 34.664 0 0 0 13.494 8.394 1.663 1.663 0 0 1 1.132 1.578v12.148c0 .512-.237.995-.64 1.313a1.671 1.671 0 0 1-1.43.303 49.929 49.929 0 0 1-23.16-13.129v-.01ZM5.494 63.554a46.608 46.608 0 0 0 11.689 19.542 46.608 46.608 0 0 0 19.541 11.688v-8.787a37.905 37.905 0 0 1-13.65-8.788 37.98 37.98 0 0 1-8.792-13.65H5.494v-.005ZM60.777 98.145a1.663 1.663 0 0 1-.488-1.18V84.817c0-.716.455-1.351 1.133-1.579 5.119-1.73 9.655-4.555 13.494-8.394A34.642 34.642 0 0 0 83.31 61.35a1.663 1.663 0 0 1 1.578-1.133h12.148c.512 0 .995.238 1.313.64.318.403.427.934.303 1.427A49.978 49.978 0 0 1 85.52 85.442 49.873 49.873 0 0 1 62.36 98.576a1.673 1.673 0 0 1-1.426-.303c-.052-.048-.105-.09-.152-.138l-.005.01Zm2.844-12.153v8.787a46.607 46.607 0 0 0 19.542-11.688A46.657 46.657 0 0 0 94.85 63.55h-8.787c-1.92 5.147-4.873 9.73-8.792 13.65-3.916 3.915-8.504 6.873-13.65 8.792ZM2.13 39.505a1.667 1.667 0 0 1-.436-1.583 49.872 49.872 0 0 1 13.134-23.158A49.936 49.936 0 0 1 37.986 1.63a1.673 1.673 0 0 1 1.427.303c.402.318.64.801.64 1.313v12.148c0 .716-.456 1.35-1.133 1.578-5.12 1.73-9.655 4.555-13.494 8.394a34.664 34.664 0 0 0-8.394 13.494 1.663 1.663 0 0 1-1.579 1.133H3.305c-.445 0-.872-.175-1.18-.483l.005-.005Zm34.59-34.07A46.609 46.609 0 0 0 17.18 17.125 46.658 46.658 0 0 0 5.49 36.666h8.788c1.92-5.147 4.872-9.73 8.792-13.65a37.981 37.981 0 0 1 13.65-8.793V5.436Z" fill="#fff"/><path d="M77.268 23.01c-14.94-14.939-39.255-14.944-54.194 0-14.945 14.945-14.94 39.255 0 54.195 14.94 14.94 39.25 14.944 54.194 0 14.944-14.945 14.94-39.255 0-54.194Z" fill="#fff"/><path d="m63.994 63.785-27.527.183a2.1 2.1 0 0 0-2.086 2.113l.006.981a2.1 2.1 0 0 0 2.114 2.086l27.528-.182a2.1 2.1 0 0 0 2.085-2.114l-.006-.981a2.1 2.1 0 0 0-2.114-2.086ZM40.217 47.169c-.298 0-.602-.066-.877-.2l-2.147-1.037a1.984 1.984 0 0 1-.971-2.522l.986-2.455a1.977 1.977 0 0 1 2.815-.98l2.56 1.459a1.985 1.985 0 0 1 .65 2.844l-1.404 2.033c-.365.53-.972.853-1.617.853l.005.005ZM60.032 47.036a1.986 1.986 0 0 1-1.626-.834l-1.388-1.957c-.323-.45-.436-1.02-.323-1.56.114-.54.455-1.014.934-1.294l2.64-1.55c.299-.175.64-.27.986-.274a1.983 1.983 0 0 1 1.844 1.218l.995 2.384a1.991 1.991 0 0 1-.938 2.536l-2.247 1.123a2 2 0 0 1-.872.208h-.005Z" fill="#110A1D"/><path d="M38.055 62.128a2.86 2.86 0 0 1-2.707-1.887l-4.592-12.64a4.877 4.877 0 0 1-2.716.435 4.85 4.85 0 0 1-4.223-4.773 4.855 4.855 0 0 1 4.815-4.881 4.848 4.848 0 0 1 4.877 4.815 4.79 4.79 0 0 1-.322 1.763 5.304 5.304 0 0 1-.436.868l8.735 4.227 6.683-9.683a4.893 4.893 0 0 1-2.052-1.654 4.82 4.82 0 0 1-.896-2.773 4.855 4.855 0 0 1 5.176-4.872 4.858 4.858 0 0 1 4.503 4.474 4.833 4.833 0 0 1-.863 3.143 4.892 4.892 0 0 1-1.237 1.223 4.397 4.397 0 0 1-.801.44l6.801 9.584 8.594-4.299a5.01 5.01 0 0 1-.384-.967 4.713 4.713 0 0 1-.176-1.265 4.844 4.844 0 1 1 9.688-.062 4.853 4.853 0 0 1-4.507 4.868l-.304.01a4.96 4.96 0 0 1-1.445-.21 4.705 4.705 0 0 1-.872-.364L65.08 60.042a2.86 2.86 0 0 1-2.682 1.92l-24.343.16v.006Z" fill="#110A1D"/></svg><svg fill="none" viewBox="0 0 100 221" id="dollar" xmlns="http://www.w3.org/2000/svg"><path d="M99.11 171.065c0 27.323-22.232 49.556-49.555 49.556C22.233 220.621 0 198.388 0 171.065c0-27.322 22.233-49.555 49.555-49.555 27.323 0 49.556 22.233 49.556 49.555Zm-95.54 0c0 25.356 20.63 45.986 45.985 45.986 25.356 0 45.986-20.63 45.986-45.986 0-25.355-20.63-45.985-45.986-45.985-25.355 0-45.985 20.63-45.985 45.985ZM99.114 49.93a1.78 1.78 0 1 1-3.56 0c0-25.356-20.63-45.986-45.986-45.986-25.355 0-45.985 20.63-45.985 45.985a1.78 1.78 0 1 1-3.56 0C.023 22.607 22.256.374 49.58.374c27.322 0 49.555 22.233 49.555 49.555h-.02Z" fill="#478BF9"/><path d="M40.012 162.312a3.952 3.952 0 0 0 3.008 3.84l3.362.844v-8.65h-2.394a3.971 3.971 0 0 0-3.966 3.966h-.01ZM52.73 183.785h2.393a3.971 3.971 0 0 0 3.966-3.966 3.952 3.952 0 0 0-3.008-3.841l-3.362-.843v8.65h.01Z" fill="#478BF9"/><path d="M49.556 130.742c-22.233 0-40.333 18.09-40.333 40.334 0 22.243 18.09 40.333 40.333 40.333s40.334-18.09 40.334-40.333c0-22.244-18.09-40.334-40.334-40.334Zm15.905 33.964H59.1v-3.185a3.192 3.192 0 0 0-3.185-3.186H52.73v10.243l4.902 1.228a10.31 10.31 0 0 1 7.817 10.013c0 5.693-4.632 10.325-10.325 10.325H52.73v8.057h-6.36v-8.057h-3.185c-5.267 0-9.544-4.278-9.544-9.544v-3.185h6.36v3.185a3.192 3.192 0 0 0 3.184 3.185h3.185v-10.243l-4.902-1.228a10.31 10.31 0 0 1-7.817-10.013c0-5.693 4.632-10.325 10.325-10.325h2.394v-8.056h6.36v8.056h3.185c5.267 0 9.545 4.278 9.545 9.545v3.185ZM99.173 49.17v119.595a1.779 1.779 0 1 1-3.56 0V49.17a1.779 1.779 0 1 1 3.56 0ZM3.638 48.91v119.595a1.78 1.78 0 1 1-3.56 0V48.91a1.78 1.78 0 1 1 3.56 0Z" fill="#478BF9"/></svg><svg fill="none" viewBox="0 0 100 100" id="m" xmlns="http://www.w3.org/2000/svg"><path d="M49.733 99.39C22.41 99.39.187 77.156.187 49.843.187 22.532 22.42.3 49.733.3c27.312 0 49.545 22.233 49.545 49.545 0 27.313-22.233 49.545-49.546 49.545Zm0-95.791c-25.502 0-46.246 20.744-46.246 46.245 0 25.502 20.744 46.246 46.245 46.246 25.502 0 46.246-20.744 46.246-46.246 0-25.5-20.744-46.245-46.245-46.245Z" fill="#7DDACF"/><path d="M82.065 14.491 66.726 29.83l3.018 3.018 15.338-15.338-3.017-3.018ZM29.264 67.29 13.926 82.628l3.017 3.018 15.338-15.338-3.017-3.018ZM70.193 67.298l-3.017 3.017 15.338 15.338 3.017-3.017-15.338-15.338ZM16.94 14.037l-3.018 3.017 15.33 15.331 3.018-3.017-15.33-15.331ZM61.817 51.177c.999-1 .999-2.613 0-3.602l-2.124-2.113c-.999-.999-2.612-.999-3.601 0l-1.145 1.145-1.322-1.322c-1-.999-2.613-.999-3.601 0l-1.145 1.156-1.322-1.332c-1-1-2.613-1-3.602 0l-7.026 7.025c-.052.052-.052.136 0 .198a2.425 2.425 0 0 0 3.415 0l4.527-4.528a1.25 1.25 0 0 1 1.77 0l.333.334a.15.15 0 0 1 0 .218l-3.778 3.778c-.052.052-.052.136 0 .198a2.425 2.425 0 0 0 3.414 0l4.34-4.34a1.25 1.25 0 0 1 1.77 0l.333.333c.052.052.052.135 0 .198l-3.643 3.643c-.053.052-.053.135 0 .197a2.425 2.425 0 0 0 3.414 0l4.194-4.194a1.25 1.25 0 0 1 1.77 0l.718.718a.735.735 0 0 1 0 1.03l-.115.115a.735.735 0 0 1-1.03 0l-.926-.926c-.053-.053-.136-.053-.198 0l-1.603 1.602c-.052.052-.052.136 0 .198l1.447 1.447c.999 1 2.612 1 3.601 0l1.145-1.145-.01-.031Z" fill="#7DDACF"/><path d="M49.734 11.853c-20.984 0-37.992 17.008-37.992 37.991 0 20.984 17.008 37.992 37.992 37.992 20.983 0 37.991-17.008 37.991-37.992 0-20.983-17.008-37.991-37.991-37.991Zm1.55 11.73c6.1.355 11.637 2.79 15.926 6.6l-5.486 5.485a18.517 18.517 0 0 0-10.44-4.33v-7.754Zm-3.09 0v7.755a18.446 18.446 0 0 0-10.44 4.33l-5.486-5.485a26.214 26.214 0 0 1 15.925-6.6Zm-18.112 8.785 5.485 5.486a18.517 18.517 0 0 0-4.33 10.44h-7.754a26.215 26.215 0 0 1 6.6-15.925Zm-6.599 19.017h7.755a18.446 18.446 0 0 0 4.33 10.44l-5.486 5.485a26.215 26.215 0 0 1-6.599-15.925Zm24.71 24.71a26.215 26.215 0 0 1-15.925-6.599l5.485-5.485a18.516 18.516 0 0 0 10.44 4.33v7.754Zm-14.426-26.26c0-8.817 7.15-15.968 15.967-15.968 8.816 0 15.967 7.151 15.967 15.967S58.55 65.801 49.734 65.801c-8.817 0-15.967-7.15-15.967-15.967Zm17.517 26.26v-7.754a18.445 18.445 0 0 0 10.44-4.33l5.486 5.485a26.215 26.215 0 0 1-15.925 6.6Zm18.111-8.785-5.485-5.485a18.517 18.517 0 0 0 4.33-10.44h7.755a26.214 26.214 0 0 1-6.6 15.925ZM68.24 48.294a18.446 18.446 0 0 0-4.33-10.44l5.486-5.486a26.214 26.214 0 0 1 6.599 15.926H68.24Z" fill="#7DDACF"/></svg><svg fill="none" viewBox="0 0 100 100" id="m-blue" xmlns="http://www.w3.org/2000/svg"><path d="M50.397 99.62C23.074 99.62.852 77.389.852 50.077.852 22.763 23.084.53 50.397.53c27.312 0 49.545 22.232 49.545 49.545 0 27.312-22.233 49.545-49.545 49.545Zm0-95.79C24.895 3.83 4.15 24.574 4.15 50.076c0 25.5 20.744 46.245 46.246 46.245 25.5 0 46.245-20.744 46.245-46.245 0-25.502-20.744-46.246-46.245-46.246Z" fill="#478BF9"/><path d="M82.717 14.729 67.38 30.067l3.018 3.018 15.338-15.338-3.018-3.018ZM29.924 67.52 14.586 82.86l3.018 3.017 15.338-15.338-3.018-3.017ZM70.862 67.536l-3.018 3.017 15.338 15.338 3.018-3.017-15.338-15.338ZM17.6 14.267l-3.018 3.018 15.331 15.33 3.018-3.017L17.6 14.268ZM62.48 51.408c1-1 1-2.613 0-3.602l-2.123-2.113c-.999-.999-2.612-.999-3.6 0l-1.146 1.145-1.322-1.322c-.999-.999-2.612-.999-3.601 0l-1.145 1.156-1.322-1.332c-1-1-2.613-1-3.601 0l-7.026 7.025c-.052.052-.052.136 0 .198a2.425 2.425 0 0 0 3.414 0l4.527-4.528a1.25 1.25 0 0 1 1.77 0l.333.333a.151.151 0 0 1 0 .219l-3.778 3.778c-.052.052-.052.136 0 .198a2.425 2.425 0 0 0 3.414 0l4.34-4.34a1.25 1.25 0 0 1 1.77 0l.333.333c.052.052.052.135 0 .198l-3.643 3.643c-.052.052-.052.135 0 .197a2.425 2.425 0 0 0 3.414 0l4.194-4.194a1.25 1.25 0 0 1 1.77 0l.718.718a.735.735 0 0 1 0 1.03l-.114.115a.735.735 0 0 1-1.03 0l-.927-.926c-.052-.053-.136-.053-.198 0l-1.603 1.602c-.052.052-.052.136 0 .198l1.447 1.447c1 1 2.612 1 3.601 0l1.145-1.145-.01-.031Z" fill="#478BF9"/><path d="M50.398 12.084c-20.984 0-37.992 17.008-37.992 37.992 0 20.983 17.008 37.991 37.992 37.991 20.984 0 37.991-17.008 37.991-37.991 0-20.984-17.007-37.992-37.991-37.992Zm1.55 11.73c6.1.354 11.638 2.79 15.926 6.6l-5.485 5.485a18.517 18.517 0 0 0-10.44-4.33v-7.755Zm-3.09 0v7.755a18.445 18.445 0 0 0-10.44 4.33l-5.486-5.485a26.214 26.214 0 0 1 15.925-6.6ZM30.745 32.6l5.486 5.486a18.517 18.517 0 0 0-4.33 10.44h-7.755a26.214 26.214 0 0 1 6.6-15.926Zm-6.599 19.017h7.755a18.446 18.446 0 0 0 4.33 10.44l-5.486 5.485a26.214 26.214 0 0 1-6.599-15.925Zm24.71 24.71a26.214 26.214 0 0 1-15.925-6.599l5.485-5.485a18.517 18.517 0 0 0 10.44 4.33v7.754Zm-14.426-26.26c0-8.817 7.15-15.968 15.967-15.968 8.816 0 15.967 7.151 15.967 15.967s-7.151 15.967-15.967 15.967-15.967-7.15-15.967-15.967Zm17.518 26.26v-7.754a18.445 18.445 0 0 0 10.44-4.33l5.485 5.485a26.214 26.214 0 0 1-15.925 6.6Zm18.11-8.785-5.485-5.485a18.517 18.517 0 0 0 4.33-10.44h7.755a26.214 26.214 0 0 1-6.6 15.925Zm-1.155-19.016a18.446 18.446 0 0 0-4.33-10.44l5.486-5.486a26.214 26.214 0 0 1 6.599 15.926h-7.755Z" fill="#478BF9"/></svg><svg fill="none" viewBox="0 0 100 100" id="m-white" xmlns="http://www.w3.org/2000/svg"><path d="M49.545 99.123C22.222 99.123 0 76.891 0 49.578 0 22.266 22.233.033 49.545.033S99.09 22.266 99.09 49.578c0 27.313-22.233 49.545-49.545 49.545Zm0-95.79c-25.501 0-46.246 20.744-46.246 46.245 0 25.501 20.745 46.246 46.246 46.246s46.246-20.745 46.246-46.246c0-25.5-20.745-46.245-46.246-46.245Z" fill="#fff"/><path d="M81.873 14.224 66.535 29.562l3.017 3.018 15.339-15.338-3.018-3.018ZM29.076 67.023 13.738 82.361l3.018 3.018L32.094 70.04l-3.018-3.018ZM70.017 67.02 67 70.038l15.338 15.338 3.018-3.017L70.017 67.02ZM16.767 13.76l-3.017 3.017 15.33 15.33 3.018-3.017-15.33-15.33ZM61.641 50.91c1-.998 1-2.612 0-3.6l-2.123-2.114c-1-.999-2.613-.999-3.602 0l-1.145 1.145-1.322-1.322c-.999-.999-2.612-.999-3.601 0l-1.145 1.156-1.322-1.333c-1-.999-2.612-.999-3.601 0l-7.026 7.026c-.052.052-.052.136 0 .198a2.425 2.425 0 0 0 3.414 0l4.528-4.528a1.25 1.25 0 0 1 1.77 0l.332.333a.15.15 0 0 1 0 .219l-3.778 3.778c-.052.052-.052.136 0 .198a2.425 2.425 0 0 0 3.414 0l4.34-4.34a1.25 1.25 0 0 1 1.77 0l.333.333c.052.052.052.135 0 .198L49.234 51.9c-.052.052-.052.135 0 .197a2.425 2.425 0 0 0 3.414 0l4.194-4.194a1.25 1.25 0 0 1 1.77 0l.718.718a.735.735 0 0 1 0 1.03l-.114.115a.735.735 0 0 1-1.03 0l-.927-.927c-.052-.052-.135-.052-.198 0l-1.603 1.603c-.052.052-.052.136 0 .198l1.447 1.447c1 1 2.613 1 3.601 0l1.145-1.145-.01-.031Z" fill="#fff"/><path d="M49.546 11.576c-20.984 0-37.991 17.008-37.991 37.992 0 20.984 17.007 37.991 37.991 37.991 20.984 0 37.992-17.007 37.992-37.991 0-20.984-17.008-37.992-37.992-37.992Zm1.551 11.73c6.1.355 11.637 2.79 15.925 6.6l-5.485 5.485a18.517 18.517 0 0 0-10.44-4.33v-7.754Zm-3.091 0v7.755a18.445 18.445 0 0 0-10.44 4.33l-5.486-5.485a26.214 26.214 0 0 1 15.926-6.6Zm-18.111 8.786 5.485 5.485a18.517 18.517 0 0 0-4.33 10.44h-7.754a26.215 26.215 0 0 1 6.599-15.925Zm-6.6 19.016h7.755a18.446 18.446 0 0 0 4.33 10.44l-5.485 5.486a26.214 26.214 0 0 1-6.6-15.926Zm24.71 24.71A26.214 26.214 0 0 1 32.08 69.22l5.486-5.485a18.517 18.517 0 0 0 10.44 4.33v7.755ZM33.58 49.558c0-8.817 7.151-15.967 15.967-15.967s15.967 7.15 15.967 15.966c0 8.817-7.15 15.967-15.967 15.967-8.816 0-15.967-7.15-15.967-15.967Zm17.518 26.26v-7.754a18.446 18.446 0 0 0 10.44-4.33l5.485 5.485a26.214 26.214 0 0 1-15.925 6.6Zm18.111-8.784-5.485-5.486a18.517 18.517 0 0 0 4.33-10.44h7.754a26.215 26.215 0 0 1-6.599 15.926Zm-1.155-19.017a18.445 18.445 0 0 0-4.33-10.44l5.485-5.485a26.215 26.215 0 0 1 6.6 15.925h-7.755Z" fill="#fff"/></svg><svg fill="none" viewBox="0 0 28 28" id="menu" xmlns="http://www.w3.org/2000/svg"><path d="M4.667 21h18.666a1.17 1.17 0 0 0 1.167-1.167 1.17 1.17 0 0 0-1.167-1.166H4.667A1.17 1.17 0 0 0 3.5 19.833 1.17 1.17 0 0 0 4.667 21Zm0-5.833h18.666A1.17 1.17 0 0 0 24.5 14a1.17 1.17 0 0 0-1.167-1.167H4.667A1.17 1.17 0 0 0 3.5 14a1.17 1.17 0 0 0 1.167 1.167Zm-1.167-7a1.17 1.17 0 0 0 1.167 1.166h18.666A1.17 1.17 0 0 0 24.5 8.167 1.17 1.17 0 0 0 23.333 7H4.667A1.17 1.17 0 0 0 3.5 8.167Z" fill="#fff"/></svg><svg fill="none" viewBox="0 0 16 16" id="planet" xmlns="http://www.w3.org/2000/svg"><g fill="#9DADF2" clip-path="url(#ka)"><path d="M14.17 3.719C12.798 1.84 11 .775 8.635.5a11.684 11.684 0 0 1 2.354 4.22c1.106-.229 2.154-.527 3.18-1.001ZM4.25 5.523c-.42-.11-.828-.217-1.23-.341-.36-.116-.714-.249-1.068-.381-.2-.075-.4-.15-.601-.222C.162 6.67.274 9.636 1.345 11.386c.599-.188 1.193-.377 1.792-.567h.001l1.633-.516c-.316-1.522-.31-3.09.006-4.641a76.544 76.544 0 0 0-.527-.14ZM12.946 5.158l-1.716.545c.316 1.533.304 3.09 0 4.594 1.16.369 2.29.726 3.431 1.083 1.125-1.926 1.113-4.852 0-6.766l-1.715.544ZM5.72 10.227a10.424 10.424 0 0 1-.018-4.401c.239.014.473.03.705.047.54.038 1.066.076 1.59.076.525 0 1.05-.038 1.59-.076.232-.016.467-.033.706-.047.322 1.434.31 2.903-.006 4.395a16.81 16.81 0 0 0-4.568.006ZM14.17 12.275c-1.36 1.879-3.163 2.938-5.529 3.225 1.09-1.276 1.868-2.657 2.343-4.214 1.1.21 2.143.527 3.185.99ZM7.359.5c-2.366.28-4.17 1.346-5.575 3.283 1.101.34 2.138.662 3.21.995C5.49 3.157 6.263 1.782 7.358.5ZM7.359 15.5c-2.36-.28-4.158-1.34-5.575-3.283l1.037-.32h.001l2.171-.67A11.673 11.673 0 0 0 7.36 15.5ZM10.04 4.86a10.412 10.412 0 0 0-2.043-3.664C7.06 2.303 6.381 3.496 5.96 4.86a15.13 15.13 0 0 0 4.082 0ZM8.003 14.803a10.336 10.336 0 0 1-2.044-3.657c1.365-.193 2.7-.188 4.088-.006a10.567 10.567 0 0 1-2.044 3.663Z"/></g><defs><clipPath id="ka"><path fill="#fff" d="M0 0h16v16H0z"/></clipPath></defs></svg><svg fill="none" viewBox="0 0 20 20" id="planet-mobile" xmlns="http://www.w3.org/2000/svg"><g fill="#9DADF2" clip-path="url(#ja)"><path d="M17.712 4.649C15.998 2.3 13.752.969 10.794.625A14.607 14.607 0 0 1 13.737 5.9c1.383-.286 2.693-.659 3.975-1.251ZM5.313 6.904c-.525-.138-1.036-.271-1.538-.426-.45-.145-.892-.311-1.335-.477-.25-.094-.5-.187-.751-.277-1.486 2.612-1.347 6.32-.008 8.508.749-.235 1.491-.47 2.24-.708h.002l2.04-.645a14.34 14.34 0 0 1 .008-5.802c-.223-.06-.442-.117-.658-.173ZM16.182 6.448c-.713.227-1.428.454-2.145.68.395 1.917.38 3.863 0 5.743 1.45.461 2.862.907 4.29 1.354 1.405-2.407 1.39-6.065 0-8.457l-2.145.68ZM7.15 12.784c-.41-1.859-.396-3.68-.023-5.502.299.018.592.039.881.06.677.047 1.333.094 1.989.094.655 0 1.311-.047 1.987-.095.29-.02.584-.041.882-.059.402 1.793.388 3.629-.007 5.494-1.918-.248-3.792-.263-5.71.008ZM17.712 15.344c-1.699 2.348-3.953 3.673-6.91 4.031 1.361-1.595 2.335-3.321 2.928-5.267 1.376.263 2.679.658 3.982 1.236ZM9.199.625C6.242.976 3.987 2.308 2.23 4.729c1.376.424 2.672.827 4.012 1.244C6.864 3.946 7.83 2.227 9.199.625ZM9.199 19.375c-2.95-.351-5.197-1.675-6.969-4.104l1.296-.4h.002c.91-.282 1.802-.558 2.714-.836a14.59 14.59 0 0 0 2.957 5.34ZM12.551 6.075a13.015 13.015 0 0 0-2.555-4.58c-1.17 1.383-2.02 2.876-2.547 4.58 1.72.227 3.39.234 5.102 0ZM10.004 18.504a12.92 12.92 0 0 1-2.555-4.572 18.67 18.67 0 0 1 5.11-.007 13.21 13.21 0 0 1-2.555 4.58Z"/></g><defs><clipPath id="ja"><path fill="#fff" d="M0 0h20v20H0z"/></clipPath></defs></svg><svg fill="none" viewBox="0 0 100 100" id="shield" xmlns="http://www.w3.org/2000/svg"><path d="M49.733 100c-12.7 0-25.387-4.83-35.057-14.5-19.329-19.328-19.329-50.772 0-70.101C24.044 6.03 36.493.879 49.732.879c13.24 0 25.689 5.152 35.057 14.52 19.329 19.329 19.329 50.773 0 70.102C75.129 95.16 62.43 100 49.733 100ZM17.278 82.899c17.893 17.892 47.006 17.892 64.898 0 17.893-17.893 17.893-47.006 0-64.898-8.67-8.67-20.193-13.438-32.454-13.438S25.938 9.341 17.268 18.001c-17.893 17.892-17.893 47.005 0 64.898h.01Z" fill="#9DADF2"/><path d="M49.077 68.993c.177.427.593.676 1.03.676a1.3 1.3 0 0 0 .438-.083 25.699 25.699 0 0 0 9.2-6.568 1.117 1.117 0 0 0-.093-1.571 1.117 1.117 0 0 0-1.572.093 23.265 23.265 0 0 1-8.4 5.996c-.562.239-.832.895-.593 1.457h-.01Z" fill="#9DADF2"/><path d="m68.623 33.312-18.486-7.39a1.15 1.15 0 0 0-.833 0l-18.486 7.39a1.095 1.095 0 0 0-.697 1.03v13.24c.02 12.22 7.744 23.264 19.214 27.469a1.195 1.195 0 0 0 .77 0C61.576 70.835 69.3 59.8 69.32 47.582v-13.24c0-.458-.27-.864-.697-1.03Zm-1.53 14.27c-.021 11.117-6.995 21.244-17.362 25.23C39.364 68.827 32.38 58.7 32.359 47.583v-12.48L49.73 28.16l17.361 6.942v12.48Z" fill="#9DADF2"/><path d="M42.008 35.05a1.103 1.103 0 0 0-.853 0l-4.403 1.76a1.095 1.095 0 0 0-.697 1.03v4.694c0 .614.5 1.114 1.113 1.114.614 0 1.114-.5 1.114-1.114V38.6l3.695-1.478c.281-.115.49-.323.614-.604.115-.27.115-.572 0-.854a1.143 1.143 0 0 0-.593-.614h.01Z" fill="#9DADF2"/><path d="M77.888 22.3c-7.515-7.526-17.518-11.658-28.156-11.658-10.637 0-20.63 4.143-28.155 11.658-15.52 15.519-15.52 40.78 0 56.31 7.765 7.765 17.955 11.637 28.155 11.637 10.2 0 20.39-3.882 28.156-11.636 15.519-15.52 15.519-40.782 0-56.311ZM72.38 47.582c.032 14.125-8.993 26.48-22.451 30.758a.642.642 0 0 1-.396 0c-13.458-4.278-22.482-16.633-22.451-30.758V31.96c0-.26.156-.5.406-.604l22.004-8.795a.611.611 0 0 1 .24-.042c.082 0 .166.01.239.042l22.003 8.806c.25.093.406.333.406.603v15.624-.01Z" fill="#9DADF2"/></svg><svg fill="none" viewBox="0 0 100 100" id="soccer" xmlns="http://www.w3.org/2000/svg"><path d="M49.877 99.932C22.554 99.932.332 77.7.332 50.387.332 23.075 22.565.842 49.877.842s49.545 22.233 49.545 49.545c0 27.313-22.233 49.545-49.545 49.545Zm0-95.79C24.376 4.142 3.63 24.886 3.63 50.387c0 25.501 20.745 46.246 46.246 46.246s46.245-20.745 46.245-46.246c0-25.5-20.744-46.245-46.245-46.245Z" fill="#9DADF2"/><path d="M65.951 19.453c-.25 0-.5-.052-.728-.167a34.317 34.317 0 0 0-15.343-3.58 34.316 34.316 0 0 0-15.342 3.58 1.647 1.647 0 0 1-1.894-.312l-8.515-8.514a1.642 1.642 0 0 1-.468-1.374c.062-.51.354-.958.791-1.218A49.457 49.457 0 0 1 49.891.842a49.557 49.557 0 0 1 25.438 7.026c.438.26.729.708.792 1.218.062.51-.115 1.01-.469 1.374l-8.514 8.514a1.68 1.68 0 0 1-1.176.479h-.01Zm-16.07-7.047a37.64 37.64 0 0 1 15.727 3.404l6.162-6.162a46.153 46.153 0 0 0-21.89-5.506 46.152 46.152 0 0 0-21.889 5.506l6.162 6.162a37.64 37.64 0 0 1 15.727-3.404ZM49.879 99.932a49.556 49.556 0 0 1-25.44-7.025 1.646 1.646 0 0 1-.79-1.218c-.063-.51.114-1.01.468-1.374l8.514-8.514c.5-.5 1.27-.625 1.895-.313a34.317 34.317 0 0 0 15.342 3.58 34.319 34.319 0 0 0 15.342-3.58 1.647 1.647 0 0 1 1.895.313l8.514 8.514c.364.364.53.864.468 1.374-.062.51-.353.957-.79 1.218a49.456 49.456 0 0 1-25.44 7.025h.022Zm-21.89-8.805a46.152 46.152 0 0 0 21.89 5.506c7.66 0 15.186-1.894 21.889-5.506l-6.162-6.162a37.642 37.642 0 0 1-15.727 3.403 37.642 37.642 0 0 1-15.728-3.403l-6.162 6.162ZM90.983 76.627c-.438 0-.854-.166-1.166-.478l-8.515-8.515a1.65 1.65 0 0 1-.312-1.894 34.317 34.317 0 0 0 3.58-15.342 34.317 34.317 0 0 0-3.58-15.343 1.644 1.644 0 0 1 .312-1.894l8.515-8.514c.364-.364.864-.531 1.374-.469.51.063.957.354 1.217.791a49.456 49.456 0 0 1 7.026 25.44 49.456 49.456 0 0 1-7.026 25.438c-.26.437-.707.729-1.217.79h-.209v-.01Zm-6.527-10.512 6.162 6.162a46.152 46.152 0 0 0 5.506-21.89c0-7.66-1.894-15.186-5.506-21.889l-6.162 6.162a37.64 37.64 0 0 1 3.404 15.727 37.64 37.64 0 0 1-3.404 15.728ZM8.773 76.628c-.073 0-.135 0-.198-.01a1.645 1.645 0 0 1-1.218-.792A49.456 49.456 0 0 1 .332 50.387 49.456 49.456 0 0 1 7.357 24.95c.26-.438.708-.729 1.218-.791.51-.063 1.01.114 1.374.468l8.514 8.514c.5.5.625 1.27.313 1.895a34.316 34.316 0 0 0-3.581 15.342 34.317 34.317 0 0 0 3.58 15.342 1.644 1.644 0 0 1-.312 1.895L9.95 76.128c-.312.312-.728.49-1.166.49l-.01.01Zm.364-48.13a46.152 46.152 0 0 0-5.506 21.89c0 7.66 1.894 15.186 5.506 21.889l6.162-6.162a37.64 37.64 0 0 1-3.403-15.728 37.64 37.64 0 0 1 3.403-15.727l-6.162-6.162Z" fill="#9DADF2"/><path d="M49.878 12.396c-20.942 0-37.992 17.039-37.992 37.991 0 20.953 17.04 37.992 37.992 37.992 20.953 0 37.992-17.04 37.992-37.992 0-20.952-17.04-37.991-37.992-37.991Zm21.38 25.511a24.473 24.473 0 0 1 3.247 10.013.368.368 0 0 1-.177.354 31.822 31.822 0 0 0-7.255 6.09.341.341 0 0 1-.385.103l-4.694-1.53a.36.36 0 0 1-.25-.301 32.68 32.68 0 0 0-3.591-11.055.368.368 0 0 1 .031-.385l2.904-3.996a.395.395 0 0 1 .302-.157h.083c3.102.687 6.287.916 9.451.656a.376.376 0 0 1 .354.188l-.02.02ZM59.182 53.291a.378.378 0 0 1-.083.281 24.852 24.852 0 0 1-9.076 6.579.332.332 0 0 1-.281 0 25.093 25.093 0 0 1-9.077-6.579.378.378 0 0 1-.083-.28 30.144 30.144 0 0 1 3.477-10.7.346.346 0 0 1 .239-.178 27.175 27.175 0 0 1 5.59-.583c1.883 0 3.757.198 5.589.583.104.021.187.084.24.177a30.353 30.353 0 0 1 3.476 10.7h-.01Zm-.562-25.834s.125-.104.25-.104c.042 0 .094 0 .146.031 3.83 1.52 7.255 4.018 9.92 7.213a.345.345 0 0 1 .051.386.357.357 0 0 1-.333.218 28.67 28.67 0 0 1-6.994-.78.37.37 0 0 1-.23-.167 29.502 29.502 0 0 1-2.903-6.422.345.345 0 0 1 .104-.375h-.01Zm-14-1.249a25.252 25.252 0 0 1 10.524 0c.135.031.25.135.28.27a31.904 31.904 0 0 0 3.55 8.786.382.382 0 0 1-.02.405l-2.884 3.977a.36.36 0 0 1-.364.145c-3.81-.77-7.838-.77-11.647 0a.361.361 0 0 1-.365-.145l-2.883-3.977a.38.38 0 0 1-.02-.405 31.904 31.904 0 0 0 3.549-8.785.373.373 0 0 1 .28-.271Zm-13.79 8.39c2.664-3.206 6.088-5.704 9.919-7.214a.35.35 0 0 1 .395.073c.052.052.167.177.104.375a29.279 29.279 0 0 1-2.904 6.422.37.37 0 0 1-.229.166c-2.28.542-4.632.812-6.994.781a.357.357 0 0 1-.333-.218.345.345 0 0 1 .052-.386h-.01Zm-2.322 3.31a.368.368 0 0 1 .323-.188h.031c3.175.25 6.36.031 9.451-.656a.352.352 0 0 1 .375.146l2.904 3.997a.37.37 0 0 1 .031.385 32.674 32.674 0 0 0-3.591 11.054.389.389 0 0 1-.25.302l-4.694 1.53a.379.379 0 0 1-.385-.104 31.823 31.823 0 0 0-7.255-6.09.389.389 0 0 1-.177-.353 24.423 24.423 0 0 1 3.248-10.013l-.01-.01Zm1.135 25.646c-.063.198-.24.24-.313.25-.072 0-.24 0-.354-.167A24.697 24.697 0 0 1 25.19 51.97a.356.356 0 0 1 .187-.343c.063-.031.23-.104.396.02a28.91 28.91 0 0 1 5.204 4.747.353.353 0 0 1 .083.27 28.567 28.567 0 0 1-1.426 6.902l.01-.01Zm10.283 9.503c-3.247-1.426-6.11-3.518-8.503-6.203a.376.376 0 0 1-.073-.385 31.85 31.85 0 0 0 2.29-9.191.359.359 0 0 1 .25-.313l4.642-1.509s.072-.02.114-.02a.35.35 0 0 1 .27.124 27.696 27.696 0 0 0 9.431 6.86.363.363 0 0 1 .218.333v4.881a.352.352 0 0 1-.218.334 31.831 31.831 0 0 0-8.046 5.027.35.35 0 0 1-.385.052l.01.01Zm16.373 1.03a.347.347 0 0 1-.27.292 25.032 25.032 0 0 1-12.283 0 .363.363 0 0 1-.27-.291.366.366 0 0 1 .145-.375 29.036 29.036 0 0 1 6.131-3.487.332.332 0 0 1 .281 0 29.56 29.56 0 0 1 6.13 3.487.382.382 0 0 1 .146.375h-.01Zm12.064-7.223a24.546 24.546 0 0 1-8.504 6.193.366.366 0 0 1-.385-.052 31.653 31.653 0 0 0-8.046-5.027.363.363 0 0 1-.219-.333v-4.882c0-.146.084-.28.219-.333a27.595 27.595 0 0 0 9.43-6.86.35.35 0 0 1 .27-.124c.042 0 .074 0 .115.02l4.642 1.51c.136.042.24.166.25.312a31.934 31.934 0 0 0 2.29 9.191.355.355 0 0 1-.073.385h.01Zm2.435-3.216a.356.356 0 0 1-.354.166.359.359 0 0 1-.312-.25 29.596 29.596 0 0 1-1.426-6.9c0-.094.021-.198.084-.27a29.3 29.3 0 0 1 5.204-4.747.36.36 0 0 1 .208-.073c.083 0 .146.031.187.052a.34.34 0 0 1 .188.343 24.696 24.696 0 0 1-3.789 11.668l.01.01Z" fill="#9DADF2"/></svg><svg fill="none" viewBox="0 0 100 100" id="soccer-white" xmlns="http://www.w3.org/2000/svg"><path d="M50.127 99.39C22.804 99.39.582 77.155.582 49.843.582 22.532 22.815.3 50.127.3s49.545 22.233 49.545 49.545S77.44 99.39 50.127 99.39Zm0-95.791c-25.501 0-46.245 20.744-46.245 46.245 0 25.501 20.744 46.246 46.245 46.246 25.501 0 46.246-20.745 46.246-46.246S75.628 3.6 50.127 3.6Z" fill="#fff"/><path d="M66.198 18.9c-.25 0-.5-.053-.729-.167a34.317 34.317 0 0 0-15.342-3.58 34.317 34.317 0 0 0-15.343 3.58 1.647 1.647 0 0 1-1.894-.312l-8.514-8.515a1.642 1.642 0 0 1-.469-1.374c.063-.51.354-.957.791-1.217A49.456 49.456 0 0 1 50.139.289a49.557 49.557 0 0 1 25.438 7.026c.437.26.728.707.79 1.217.063.51-.114 1.01-.468 1.374l-8.514 8.515a1.68 1.68 0 0 1-1.176.479h-.01Zm-16.071-7.047a37.642 37.642 0 0 1 15.727 3.403l6.162-6.161a46.152 46.152 0 0 0-21.89-5.507 46.153 46.153 0 0 0-21.889 5.507l6.162 6.161a37.642 37.642 0 0 1 15.728-3.403ZM50.125 99.39a49.557 49.557 0 0 1-25.439-7.026 1.646 1.646 0 0 1-.79-1.218c-.063-.51.114-1.01.468-1.374l8.514-8.515c.5-.5 1.27-.624 1.894-.312a34.317 34.317 0 0 0 15.343 3.58 34.317 34.317 0 0 0 15.342-3.58 1.647 1.647 0 0 1 1.894.312l8.514 8.515c.365.364.531.864.469 1.374-.063.51-.354.957-.791 1.218a49.456 49.456 0 0 1-25.439 7.025h.02Zm-21.89-8.806a46.152 46.152 0 0 0 21.89 5.506c7.66 0 15.186-1.895 21.89-5.506l-6.163-6.162a37.642 37.642 0 0 1-15.727 3.403 37.642 37.642 0 0 1-15.727-3.403l-6.162 6.162ZM91.233 76.074c-.437 0-.854-.166-1.166-.479l-8.514-8.514a1.65 1.65 0 0 1-.312-1.894 34.318 34.318 0 0 0 3.58-15.343 34.317 34.317 0 0 0-3.58-15.342 1.644 1.644 0 0 1 .312-1.894l8.514-8.515c.364-.364.864-.53 1.374-.468.51.062.958.354 1.218.791a49.456 49.456 0 0 1 7.026 25.439 49.457 49.457 0 0 1-7.026 25.438c-.26.438-.708.729-1.218.791h-.208v-.01Zm-6.526-10.513 6.162 6.162a46.152 46.152 0 0 0 5.506-21.89c0-7.66-1.895-15.185-5.507-21.888l-6.161 6.161a37.64 37.64 0 0 1 3.403 15.728 37.64 37.64 0 0 1-3.403 15.727ZM9.023 76.074c-.072 0-.135 0-.197-.01a1.645 1.645 0 0 1-1.218-.791 49.456 49.456 0 0 1-7.026-25.44 49.456 49.456 0 0 1 7.026-25.438c.26-.437.708-.728 1.218-.79.51-.063 1.01.114 1.374.468l8.514 8.514c.5.5.624 1.27.312 1.894a34.317 34.317 0 0 0-3.58 15.343 34.316 34.316 0 0 0 3.58 15.342 1.645 1.645 0 0 1-.312 1.894L10.2 75.574c-.313.313-.729.49-1.166.49l-.01.01Zm.365-48.13a46.152 46.152 0 0 0-5.506 21.89c0 7.66 1.894 15.186 5.506 21.89l6.162-6.163a37.64 37.64 0 0 1-3.404-15.727 37.64 37.64 0 0 1 3.404-15.728l-6.162-6.162Z" fill="#fff"/><path d="M50.128 11.853c-20.942 0-37.991 17.039-37.991 37.991 0 20.953 17.039 37.992 37.991 37.992 20.953 0 37.992-17.04 37.992-37.992 0-20.952-17.04-37.991-37.992-37.991Zm21.38 25.511a24.472 24.472 0 0 1 3.247 10.014.369.369 0 0 1-.177.353 31.823 31.823 0 0 0-7.255 6.09.341.341 0 0 1-.385.104l-4.694-1.53a.36.36 0 0 1-.25-.302 32.675 32.675 0 0 0-3.59-11.054.368.368 0 0 1 .03-.386l2.904-3.996a.395.395 0 0 1 .302-.157h.084c3.101.687 6.286.916 9.45.656a.377.377 0 0 1 .354.188l-.02.02ZM59.433 52.748a.378.378 0 0 1-.084.281 24.853 24.853 0 0 1-9.076 6.579.332.332 0 0 1-.281 0 25.093 25.093 0 0 1-9.076-6.579.378.378 0 0 1-.084-.28 30.145 30.145 0 0 1 3.477-10.7.347.347 0 0 1 .24-.178 27.175 27.175 0 0 1 5.589-.583c1.884 0 3.757.198 5.59.583.103.021.186.084.239.177a30.354 30.354 0 0 1 3.476 10.7h-.01Zm-.563-25.834s.125-.104.25-.104c.042 0 .094 0 .146.031 3.83 1.52 7.255 4.018 9.92 7.213a.345.345 0 0 1 .052.386.357.357 0 0 1-.334.218 28.664 28.664 0 0 1-6.994-.78.37.37 0 0 1-.23-.167 29.498 29.498 0 0 1-2.903-6.422.345.345 0 0 1 .104-.375h-.01Zm-14-1.249c3.446-.739 7.079-.739 10.524 0 .135.031.25.135.281.27a31.9 31.9 0 0 0 3.55 8.786.382.382 0 0 1-.021.406l-2.884 3.976a.361.361 0 0 1-.364.145c-3.81-.77-7.838-.77-11.647 0a.36.36 0 0 1-.364-.145l-2.884-3.977a.381.381 0 0 1-.02-.405 31.903 31.903 0 0 0 3.549-8.785.373.373 0 0 1 .28-.27Zm-13.79 8.39c2.664-3.206 6.088-5.704 9.919-7.214a.35.35 0 0 1 .396.073c.051.052.166.177.103.375a29.272 29.272 0 0 1-2.904 6.422.37.37 0 0 1-.228.166c-2.28.542-4.632.812-6.995.781a.357.357 0 0 1-.333-.218.345.345 0 0 1 .052-.386h-.01Zm-2.322 3.31a.367.367 0 0 1 .323-.188h.031c3.175.25 6.36.031 9.451-.656a.352.352 0 0 1 .375.146l2.904 3.997a.37.37 0 0 1 .031.385 32.676 32.676 0 0 0-3.59 11.054.389.389 0 0 1-.25.302l-4.695 1.53a.379.379 0 0 1-.385-.104 31.826 31.826 0 0 0-7.255-6.09.389.389 0 0 1-.177-.353 24.422 24.422 0 0 1 3.248-10.013l-.01-.01Zm1.135 25.646a.365.365 0 0 1-.312.25c-.073 0-.24 0-.354-.167a24.695 24.695 0 0 1-3.79-11.668.356.356 0 0 1 .188-.343c.063-.031.23-.104.396.02a28.906 28.906 0 0 1 5.204 4.747.354.354 0 0 1 .083.27 28.558 28.558 0 0 1-1.426 6.902l.01-.01Zm10.284 9.503c-3.248-1.426-6.11-3.518-8.504-6.203a.376.376 0 0 1-.073-.385 31.85 31.85 0 0 0 2.29-9.191.358.358 0 0 1 .25-.312l4.642-1.51s.073-.02.114-.02a.35.35 0 0 1 .27.124 27.695 27.695 0 0 0 9.431 6.86.363.363 0 0 1 .219.333v4.881a.352.352 0 0 1-.219.334 31.834 31.834 0 0 0-8.046 5.027.349.349 0 0 1-.385.052l.01.01Zm16.372 1.03a.347.347 0 0 1-.27.292 25.032 25.032 0 0 1-12.282 0 .364.364 0 0 1-.271-.291.367.367 0 0 1 .146-.375 29.03 29.03 0 0 1 6.13-3.487.331.331 0 0 1 .281 0 29.555 29.555 0 0 1 6.131 3.487.382.382 0 0 1 .146.375h-.01Zm12.064-7.223a24.546 24.546 0 0 1-8.504 6.193.366.366 0 0 1-.385-.052 31.656 31.656 0 0 0-8.046-5.027.363.363 0 0 1-.218-.333V62.22c0-.145.083-.28.218-.333a27.592 27.592 0 0 0 9.43-6.86.35.35 0 0 1 .271-.124c.042 0 .073 0 .114.02l4.643 1.51c.135.042.24.166.25.312a31.937 31.937 0 0 0 2.29 9.191.355.355 0 0 1-.073.385h.01Zm2.436-3.216a.357.357 0 0 1-.354.167.359.359 0 0 1-.313-.25 29.597 29.597 0 0 1-1.426-6.901c0-.094.021-.198.084-.27a29.299 29.299 0 0 1 5.204-4.747.36.36 0 0 1 .208-.073c.084 0 .146.031.188.052a.34.34 0 0 1 .187.343 24.696 24.696 0 0 1-3.789 11.668l.01.01Z" fill="#fff"/></svg><svg fill="none" viewBox="0 0 100 100" id="timer" xmlns="http://www.w3.org/2000/svg"><path d="M49.615 99.407c-12.698 0-25.386-4.83-35.056-14.5-19.329-19.328-19.329-50.772 0-70.101C23.927 5.438 36.376.286 49.615.286c13.24 0 25.689 5.152 35.057 14.52C104 34.135 104 65.579 84.672 84.908c-9.66 9.66-22.358 14.5-35.057 14.5ZM17.161 82.306c17.893 17.892 47.005 17.892 64.898 0 17.892-17.893 17.892-47.006 0-64.898C73.389 8.738 61.866 3.97 49.605 3.97S25.82 8.748 17.15 17.408C-.742 35.3-.742 64.413 17.15 82.306h.01Z" fill="#7DDACF"/><path d="m51.45 39.422-9.18 12.865h5.505v9.18l9.18-12.854H51.45v-9.19Z" fill="#7DDACF"/><path d="M49.605 32.272c-10.054 0-18.215 8.16-18.215 18.215 0 10.054 8.16 18.194 18.215 18.194s18.216-8.16 18.216-18.194c0-10.034-8.16-18.215-18.215-18.215Zm0 34.16c-8.826 0-15.987-7.16-15.987-15.987s7.161-15.988 15.987-15.988c8.827 0 15.988 7.161 15.988 15.988s-7.161 15.988-15.988 15.988Z" fill="#7DDACF"/><path d="M77.763 21.707c-7.516-7.526-17.518-11.658-28.156-11.658-10.638 0-20.63 4.143-28.155 11.658-15.52 15.519-15.52 40.78 0 56.31 7.765 7.765 17.955 11.648 28.155 11.648 10.2 0 20.39-3.883 28.156-11.648 15.519-15.519 15.519-40.78 0-56.31Zm-28.156 53.49c-13.614 0-24.7-11.085-24.7-24.7 0-6.016 2.155-11.533 5.736-15.842l-3.019-3.018a2.23 2.23 0 0 1 0-3.144c.864-.874 2.27-.864 3.143 0l3.019 3.019c3.747-3.133 8.462-5.194 13.604-5.631v-2.04h-2.04a3.31 3.31 0 0 1-3.29-3.29v-1.717a3.296 3.296 0 0 1 3.29-3.29h8.535c1.8 0 3.29 1.468 3.29 3.29v1.717a3.31 3.31 0 0 1-3.29 3.29h-2.04v2.04c5.152.447 9.857 2.508 13.604 5.63l3.019-3.018a2.23 2.23 0 0 1 3.143 0 2.23 2.23 0 0 1 0 3.144l-3.019 3.018c3.581 4.31 5.736 9.815 5.736 15.842 0 13.615-11.086 24.7-24.7 24.7h-.02Z" fill="#7DDACF"/></svg><svg fill="none" viewBox="0 0 100 222" id="world" xmlns="http://www.w3.org/2000/svg"><path d="M.547 50.461C.547 23.14 22.78.906 50.102.906c27.323 0 49.556 22.233 49.556 49.555 0 27.323-22.233 49.556-49.556 49.556C22.78 100.017.547 77.784.547 50.461Zm95.54 0c0-25.355-20.63-45.985-45.985-45.985S4.117 25.106 4.117 50.46c0 25.356 20.63 45.986 45.985 45.986 25.356 0 45.986-20.63 45.986-45.986ZM.544 171.607a1.78 1.78 0 1 1 3.56 0c0 25.356 20.63 45.986 45.985 45.986 25.356 0 45.986-20.63 45.986-45.986a1.78 1.78 0 1 1 3.56 0c0 27.323-22.234 49.556-49.556 49.556-27.323 0-49.556-22.233-49.556-49.556h.021Z" fill="#478BF9"/><path d="M98.143 49.264H76.441v4.278h21.702v-4.278ZM23.42 49.264H1.72v4.278H23.42v-4.278ZM52.41 78.242h-4.277v21.702h4.278V78.242ZM52.41 2.863h-4.277v21.701h4.278V2.863Z" fill="#478BF9"/><path d="M75.786 24.252c-14.843-14.843-38.918-14.843-53.771 0-14.843 14.843-14.843 38.918 0 53.771 14.843 14.843 38.918 14.843 53.77 0 14.844-14.842 14.844-38.918 0-53.77Zm-19.537 3.216a24.787 24.787 0 0 1 11.23 7.266l.584.655-.854.198c-2.258.531-4.673.968-7.171 1.29l-.448.063-.125-.437a32.867 32.867 0 0 0-1.468-4.07c-.697-1.592-1.477-2.987-2.331-4.163l-.937-1.28 1.52.468v.01ZM38.877 49.951l.02-.541c.105-3.29.47-6.433 1.094-9.326l.093-.458.469.041a94.965 94.965 0 0 0 16.768-.052l.468-.041.104.458c.635 2.925 1 6.078 1.093 9.378v.541H38.877Zm20.11 2.415v.541c-.115 3.3-.48 6.454-1.114 9.378l-.104.458-.469-.041c-5.444-.51-11.293-.52-16.768-.052l-.469.041-.093-.458c-.625-2.893-.99-6.026-1.093-9.326l-.021-.541h20.13ZM48.931 26.563c3.029 0 6.11 3.84 8.035 10.034l.198.624-.656.052a92.816 92.816 0 0 1-15.176.042l-.655-.052.197-.635c1.926-6.214 5.017-10.076 8.057-10.076v.01Zm-18.653 8.285a24.809 24.809 0 0 1 11.335-7.37l1.53-.468-.947 1.291c-.853 1.166-1.644 2.571-2.331 4.153a33.577 33.577 0 0 0-1.489 4.143l-.125.427-.447-.053a70.811 70.811 0 0 1-7.245-1.259l-.864-.198.583-.666ZM24.201 49.39a24.852 24.852 0 0 1 3.768-11.46l.208-.323.375.094a71.859 71.859 0 0 0 8.555 1.603l.563.073-.115.562c-.625 3.018-.978 6.214-1.072 9.503v.51H24.169l.042-.562h-.01Zm3.976 15.321-.208-.322a24.812 24.812 0 0 1-3.768-11.46l-.042-.562h12.303v.51c.104 3.289.468 6.495 1.083 9.503l.114.562-.562.073a72.235 72.235 0 0 0-8.556 1.603l-.375.093h.01ZM41.614 74.85a24.808 24.808 0 0 1-11.335-7.37l-.583-.666.864-.198c2.29-.52 4.726-.947 7.245-1.26l.447-.051.125.427a33.583 33.583 0 0 0 1.489 4.142c.697 1.593 1.478 2.987 2.331 4.164l.947 1.29-1.53-.468v-.01Zm7.318.905c-3.04 0-6.131-3.862-8.057-10.076l-.197-.634.655-.052a93.489 93.489 0 0 1 15.176.041l.656.052-.198.625c-1.936 6.183-5.017 10.034-8.035 10.034v.01Zm18.548-8.17a24.843 24.843 0 0 1-11.231 7.264l-1.52.469.937-1.28c.854-1.166 1.634-2.571 2.332-4.164a35.326 35.326 0 0 0 1.467-4.07l.125-.437.448.063c2.498.322 4.913.76 7.171 1.29l.854.209-.583.655Zm6.172-14.656a24.79 24.79 0 0 1-3.84 11.585l-.209.322-.374-.093c-2.634-.698-5.496-1.25-8.494-1.655l-.562-.073.114-.552c.625-3.018.99-6.235 1.083-9.576v-.51h12.313l-.041.562.01-.01ZM61.391 49.95v-.51c-.104-3.341-.469-6.568-1.093-9.576l-.115-.552.562-.072c2.998-.406 5.85-.958 8.494-1.655l.375-.094.208.323a24.637 24.637 0 0 1 3.84 11.584l.042.563H61.401l-.01-.01ZM.484 172.357V52.762a1.78 1.78 0 1 1 3.56 0v119.595a1.78 1.78 0 1 1-3.56 0ZM96.035 172.628V53.032a1.78 1.78 0 1 1 3.56 0v119.596a1.779 1.779 0 1 1-3.56 0Z" fill="#478BF9"/></svg></svg>